<svg width="128" height="128" viewBox="0 0 128 128" fill="none" xmlns="http://www.w3.org/2000/svg">
  <!-- 背景圆形 -->
  <circle cx="64" cy="64" r="60" fill="url(#blue_gradient)"/>
  
  <!-- 代码花括号 -->
  <path d="M46 38C42 38 38 42 38 46V54C38 57 36 60 33 60C36 60 38 63 38 66V74C38 78 42 82 46 82" 
        stroke="white" stroke-width="6" stroke-linecap="round" stroke-linejoin="round"/>
  <path d="M82 38C86 38 90 42 90 46V54C90 57 92 60 95 60C92 60 90 63 90 66V74C90 78 86 82 82 82" 
        stroke="white" stroke-width="6" stroke-linecap="round" stroke-linejoin="round"/>
  
  <!-- 中间的代码线条 -->
  <line x1="55" y1="48" x2="73" y2="48" stroke="white" stroke-width="4" stroke-linecap="round"/>
  <line x1="50" y1="60" x2="78" y2="60" stroke="white" stroke-width="4" stroke-linecap="round"/>
  <line x1="55" y1="72" x2="73" y2="72" stroke="white" stroke-width="4" stroke-linecap="round"/>
  
  <!-- 渐变定义 -->
  <defs>
    <linearGradient id="blue_gradient" x1="0" y1="0" x2="128" y2="128" gradientUnits="userSpaceOnUse">
      <stop offset="0%" stop-color="#4F46E5"/>
      <stop offset="100%" stop-color="#1E40AF"/>
    </linearGradient>
  </defs>
</svg>